<?xml version="1.0" encoding="UTF-8" standalone="no"?>
<!DOCTYPE svg PUBLIC "-//W3C//DTD SVG 1.1//EN" "http://www.w3.org/Graphics/SVG/1.1/DTD/svg11.dtd">
<svg width="100%" stroke="#ffffff" fill="#ffffff" height="100%" viewBox="0 0 578 489" version="1.1" xmlns="http://www.w3.org/2000/svg" xmlns:xlink="http://www.w3.org/1999/xlink" xml:space="preserve" xmlns:serif="http://www.serif.com/" style="fill-rule:evenodd;clip-rule:evenodd;stroke-linejoin:round;stroke-miterlimit:2;">
    <g transform="matrix(1,0,0,1,-47.2441,-59.0551)">
        <g id="Logo">
            <g transform="matrix(2.39862,0,0,2.39862,-1071.02,-2031.85)">
                <path d="M503.273,1057.03L540.336,1057.03L540.336,1075.56L466.21,1075.56L466.21,871.712L540.336,871.712L540.336,890.244L503.273,890.244L503.273,1057.03Z" style="fill-rule:nonzero;"/>
                <path d="M670.057,1057.03L670.057,890.244L632.994,890.244L632.994,871.712L707.12,871.712L707.12,1075.56L632.994,1075.56L632.994,1057.03L670.057,1057.03Z" style="fill-rule:nonzero;"/>
            </g>
            <path d="M360.53,448.819L360.53,372.773L384.89,372.773L384.89,348.339L409.25,348.339L409.25,323.905L484.252,323.905L484.252,372.773L433.611,372.773L433.611,397.207L409.25,397.207L409.25,448.819L360.53,448.819Z"/>
            <path d="M165.648,472.133L165.648,281.533L190.008,281.533L190.008,232.664L214.368,232.664L214.368,208.23L238.729,208.23L238.729,183.796L263.089,183.796L263.089,159.362L311.809,159.362L311.809,134.928L506.691,134.928L506.691,183.796L311.809,183.796L311.809,208.23L287.449,208.23L287.449,232.664L263.089,232.664L263.089,257.099L238.729,257.099L238.729,281.533L214.368,281.533L214.368,472.133L165.648,472.133Z"/>
            <path d="M263.089,460.63L263.089,325.529L287.449,325.529L287.449,301.095L311.809,301.095L311.809,276.661L336.17,276.661L336.17,252.226L360.53,252.226L360.53,227.792L496.063,227.792L496.063,276.661L384.89,276.661L384.89,301.095L360.53,301.095L360.53,325.529L336.17,325.529L336.17,349.963L311.809,349.963L311.809,460.63L263.089,460.63Z"/>
        </g>
    </g>
</svg>
