<?xml version="1.0" encoding="UTF-8" standalone="no"?>
<!DOCTYPE svg PUBLIC "-//W3C//DTD SVG 1.1//EN" "http://www.w3.org/Graphics/SVG/1.1/DTD/svg11.dtd">
<svg width="100%" height="100%" viewBox="0 0 965 962" version="1.1" xmlns="http://www.w3.org/2000/svg" xmlns:xlink="http://www.w3.org/1999/xlink" xml:space="preserve" xmlns:serif="http://www.serif.com/" style="fill-rule:evenodd;clip-rule:evenodd;stroke-linejoin:round;stroke-miterlimit:2;">
    <g transform="matrix(1,0,0,1,-712.922,-304.719)">
        <g transform="matrix(5.253,0,0,5.253,-3411.02,-1776.32)">
            <g transform="matrix(1,0,0,1,329.635,-108.74)">
                <path d="M455.43,687.811L455.43,504.901L494.199,504.901L494.199,519.452L473.008,519.452L473.008,673.26L494.199,673.26L494.199,687.811L455.43,687.811Z" style="fill-rule:nonzero;"/>
            </g>
            <g transform="matrix(1,0,0,1,321.173,-48.28)">
                <path d="M647.552,627.484L608.782,627.484L608.782,612.934L629.974,612.934L629.974,459.125L608.782,459.125L608.782,444.574L647.552,444.574L647.552,627.484Z" style="fill-rule:nonzero;"/>
            </g>
        </g>
        <g transform="matrix(3.33077,0,0,3.06403,-4023.24,-50.3032)">
            <path d="M1633.75,183.677C1647.29,207.007 1662.95,266.731 1649.53,309.032C1635.16,354.329 1600.33,383.27 1574.8,376.931C1539.16,368.083 1558.77,323.423 1534.17,336.118C1501.87,352.792 1441.52,325.363 1509.6,228.157C1577.67,130.951 1620.22,160.348 1633.75,183.677ZM1604.73,186.988C1598.74,186.988 1593.87,192.274 1593.87,198.785C1593.87,205.297 1598.74,210.583 1604.73,210.583C1610.72,210.583 1615.58,205.297 1615.58,198.785C1615.58,192.274 1610.72,186.988 1604.73,186.988ZM1570.13,197.034C1564.14,197.034 1559.28,202.32 1559.28,208.831C1559.28,215.342 1564.14,220.628 1570.13,220.628C1576.12,220.628 1580.98,215.342 1580.98,208.831C1580.98,202.32 1576.12,197.034 1570.13,197.034ZM1520.31,273.71C1511.95,273.71 1505.15,281.034 1505.15,290.055C1505.15,299.076 1511.95,306.4 1520.31,306.4C1528.68,306.4 1535.47,299.076 1535.47,290.055C1535.47,281.034 1528.68,273.71 1520.31,273.71ZM1544.06,224.358C1538.07,224.358 1533.2,229.644 1533.2,236.155C1533.2,242.666 1538.07,247.952 1544.06,247.952C1550.05,247.952 1554.91,242.666 1554.91,236.155C1554.91,229.644 1550.05,224.358 1544.06,224.358ZM1584.41,322.301C1578.42,322.301 1573.55,327.587 1573.55,334.098C1573.55,340.609 1578.42,345.895 1584.41,345.895C1590.39,345.895 1595.26,340.609 1595.26,334.098C1595.26,327.587 1590.39,322.301 1584.41,322.301ZM1623.21,260.31C1617.22,260.31 1612.36,265.596 1612.36,272.107C1612.36,278.618 1617.22,283.904 1623.21,283.904C1629.2,283.904 1634.06,278.618 1634.06,272.107C1634.06,265.596 1629.2,260.31 1623.21,260.31ZM1611.25,296.711C1605.26,296.711 1600.4,301.997 1600.4,308.508C1600.4,315.019 1605.26,320.305 1611.25,320.305C1617.24,320.305 1622.1,315.019 1622.1,308.508C1622.1,301.997 1617.24,296.711 1611.25,296.711ZM1619.45,221.527C1613.46,221.527 1608.6,226.813 1608.6,233.324C1608.6,239.835 1613.46,245.121 1619.45,245.121C1625.44,245.121 1630.3,239.835 1630.3,233.324C1630.3,226.813 1625.44,221.527 1619.45,221.527Z"/>
        </g>
    </g>
</svg>
